inDegrees=no
num_controls=7
num_derivatives=13
num_iterations=131
num_multipliers=7
num_parameters=0
num_slacks=7
num_states=26
objective=4.917612
objective_accelerations=0.560916
objective_balance=0.006595
objective_effort=0.152244
objective_height=4.171480
objective_ligament=0.026378
solver_duration=1490.582147
status=Solve_Succeeded
success=true
DataType=double
version=3
OpenSimVersion=4.4-2022-07-23-0e9fedc
endheader
time	/jointset/ground_pelvis/pelvis_tilt/value	/jointset/ground_pelvis/pelvis_tx/value	/jointset/ground_pelvis/pelvis_ty/value	/jointset/hip_l/hip_flexion_l/value	/jointset/hip_l/hip_adduction_l/value	/jointset/hip_l/hip_rotation_l/value	/jointset/back/lumbar_extension/value	/jointset/patellofemoral_l/patellar_flexion_l/value	/jointset/knee_l/knee_flexion_l/value	/jointset/knee_l/knee_adduction_l/value	/jointset/knee_l/knee_rotation_l/value	/jointset/ankle_l/ankle_angle_l/value	/jointset/subtalar_l/subtalar_angle_l/value	/jointset/ground_pelvis/pelvis_tilt/speed	/jointset/ground_pelvis/pelvis_tx/speed	/jointset/ground_pelvis/pelvis_ty/speed	/jointset/hip_l/hip_flexion_l/speed	/jointset/hip_l/hip_adduction_l/speed	/jointset/hip_l/hip_rotation_l/speed	/jointset/back/lumbar_extension/speed	/jointset/patellofemoral_l/patellar_flexion_l/speed	/jointset/knee_l/knee_flexion_l/speed	/jointset/knee_l/knee_adduction_l/speed	/jointset/knee_l/knee_rotation_l/speed	/jointset/ankle_l/ankle_angle_l/speed	/jointset/subtalar_l/subtalar_angle_l/speed	/forceset/tau_hip_flexion_l	/forceset/tau_hip_adduction_l	/forceset/tau_hip_rotation_l	/forceset/tau_knee_flexion_l	/forceset/tau_ankle_angle_l	/forceset/tau_subtalar_angle_l	/forceset/tau_lumbar_extension	lambda_cid13_p0	lambda_cid13_p1	lambda_cid13_p2	lambda_cid13_p3	lambda_cid13_p4	lambda_cid13_p5	lambda_cid14_p0	/jointset/ground_pelvis/pelvis_tilt/accel	/jointset/ground_pelvis/pelvis_tx/accel	/jointset/ground_pelvis/pelvis_ty/accel	/jointset/hip_l/hip_flexion_l/accel	/jointset/hip_l/hip_adduction_l/accel	/jointset/hip_l/hip_rotation_l/accel	/jointset/back/lumbar_extension/accel	/jointset/patellofemoral_l/patellar_flexion_l/accel	/jointset/knee_l/knee_flexion_l/accel	/jointset/knee_l/knee_adduction_l/accel	/jointset/knee_l/knee_rotation_l/accel	/jointset/ankle_l/ankle_angle_l/accel	/jointset/subtalar_l/subtalar_angle_l/accel	gamma_cid13_p0	gamma_cid13_p1	gamma_cid13_p2	gamma_cid13_p3	gamma_cid13_p4	gamma_cid13_p5	gamma_cid14_p0
0.5	-0.1433101635197675	0.04351643685800816	0.795980030105127	0.8420987192660789	-0.3721052065927393	-0.01047960596180181	-0.3947357670693221	0.8822553107370917	0.8822553107363775	-0.06739187001284783	-0.1742132166896839	0.3040072520717402	0.1476892346214621	-0.5669724187272772	-0.1398031607360029	-0.4231583496630115	1.984783329063695	0.02660456878598013	0.5191976849559066	-0.3188457446905736	1.797081192402521	1.797081192402225	0.2479473662278099	-0.009852880680377828	0.5314287550357488	0.2455253137334116	-0.0720006019974032	0.0156939898362115	0.005870562387095423	-0.2193362974249531	0.01870219706740499	0.01491716487273398	0.09764408763565294	-18.57080740288714	-2.062818316578629	-1.281814236695047	-2.533422667491752	-444.3366096033687	-74.25631926303821	-7.853821697640284	0.06554048958758371	0.3530671482528936	-0.376189878420162	-0.9722806419493671	0.1469684111937385	-0.4289958318441053	1.257812981987719	-1.401198018075999	-1.401198018076009	-0.3057479553085969	0.267478860023841	-0.6279185517950125	0.2181504246137708	-2.208219752309496e-07	-3.15997555060525e-06	1.806073641847683e-06	-2.944199351996512e-07	-4.95684836812719e-07	-2.316246396955546e-06	-4.778407371887914e-07
0.51	-0.1489751131146793	0.04213624964376429	0.7917306641993732	0.8618939135244585	-0.371833720368749	-0.005311272894011001	-0.3978619257060458	0.9001528193248061	0.9001528193244779	-0.06493025340013883	-0.1743023026438847	0.3092886712769045	0.1501522617488921	-0.5659452897613895	-0.1362201602539118	-0.4266200789278673	1.973992438134784	0.02767898916737928	0.5143775610491644	-0.3063611469410104	1.782167745436709	1.782167745436558	0.2443823326490246	-0.008009749638448431	0.5247761870394233	0.2470279973263591	-0.07567849153719938	0.0170065308767093	0.005208162470247611	-0.2212076249240025	0.01695123394622455	0.01577345131066288	0.1005312256519388	-19.21122087515798	-2.269392066951059	-1.309625051907638	-2.33399867204565	-446.8552930800769	-74.47414809318448	-7.136445698932419	0.132097566582406	0.3629751180763225	-0.3170546180993389	-1.171993413648407	0.08558739992647571	-0.5226993982205645	1.247508528240577	-1.574235639051023	-1.574235639029186	-0.3813400778907441	0.1361778384189213	-0.6959000757973716	0.1087948158393401	-2.429060370863646e-07	-2.822232181491685e-06	2.258775715124874e-06	-2.236788309784354e-07	-5.689990251953768e-07	-2.230839877013292e-06	-5.0490979560648e-07
0.52	-0.1546276317266308	0.04079230415831964	0.7874495029674535	0.8815732988544895	-0.3715519082312732	-0.0001939768109254012	-0.4008624932939158	0.9178936299222062	0.9178936299222981	-0.06250417892684415	-0.1743742677652952	0.314501169971656	0.1526288092100928	-0.5644862221357888	-0.1325548149761583	-0.4295174148960048	1.961621543394424	0.02866975148132722	0.5089902880171568	-0.2937275349194654	1.765741594342203	1.765741594342197	0.2408389383211531	-0.006428714110856785	0.5176446529532567	0.2482293804874728	-0.07935638107706287	0.01831907191715449	0.00454576255392542	-0.2230789524230866	0.01520027082502273	0.01662973774850457	0.1034183636681688	-19.84755379832844	-2.487212083317327	-1.323612417512736	-2.162477788603151	-449.3376123003233	-74.76576904980621	-6.458482744935954	0.1519282215300845	0.3695361073854414	-0.2633112190765087	-1.28828140423931	0.1302367977034968	-0.542425656897278	1.287615836383975	-1.703738843814796	-1.703738843814782	-0.3014201051257789	0.2150597571562306	-0.7237117697631239	0.1578903382470512	-2.665214662867393e-07	-1.982329258417402e-06	2.968536984891984e-06	-7.292191195930228e-08	-6.775782254519546e-07	-1.915244478416663e-06	-5.213744996964499e-07
0.53	-0.1602635238992587	0.03948552243180465	0.7831422228699542	0.9011211290102947	-0.3712607859295131	0.004869928563879932	-0.4037358616096541	0.9354627318604772	0.9354627318607307	-0.06011601402254448	-0.1744298024050168	0.319640196358337	0.1551155757963585	-0.562623429025658	-0.1287775453311425	-0.4318388989902908	1.947671506345063	0.02953989750687877	0.5036782446489382	-0.2809189409235216	1.747840370724052	1.747840370724023	0.2368170400379467	-0.004742770502342425	0.5101105275485144	0.2490781155935381	-0.08279897529165639	0.01923516194085613	0.003868710532940011	-0.2255913637111772	0.01430535296536165	0.01740257098772684	0.106168623565945	-20.21992552821112	-2.68935292620941	-1.369402722055024	-2.2528821255257	-451.9793498615238	-75.11128758391223	-5.820331564366052	0.2137494123607939	0.3854213953217266	-0.2017580845184507	-1.489347139195235	0.06277090048592485	-0.5429811843678252	1.281559276697311	-1.868971504845436	-1.868971504849037	-0.4492793990905383	0.1362558754788594	-0.7758431335184107	0.04133717023505828	-2.811135689945622e-07	-1.377366226892683e-06	3.467013101715512e-06	3.506349793664548e-08	-7.463917024588781e-07	-1.650978232167564e-06	-5.339359294477022e-07
0.54	-0.1658787292294598	0.03821723320219247	0.7788146897155279	0.9205212623388287	-0.3709614886883913	0.009877236003494149	-0.4064803283663337	0.9528456900857883	0.9528456900861292	-0.05776740904323495	-0.1744702987659346	0.3247023654494312	0.157609424148375	-0.5603488536513151	-0.124856315595594	-0.433568026281142	1.932082177939257	0.03030473935259528	0.4976707009773866	-0.267947223107684	1.728512851744688	1.728512851744635	0.2329269533878698	-0.003421058382638886	0.5022731938362313	0.2496457336375619	-0.0862415695062269	0.0201512519646875	0.003191658510524273	-0.2281037749992253	0.01341043510574696	0.01817540422716007	0.1089188834637216	-20.58812807590819	-2.901083506872054	-1.403542467853464	-2.381418966734162	-454.5858452590521	-75.54217405596371	-5.222032433687962	0.2342846743723274	0.3983281254920482	-0.1448398583895603	-1.616139675528383	0.1091759617363921	-0.6815257175639409	1.320240600362677	-1.988997916057495	-1.988997916057508	-0.2750577784998107	0.1422134593940328	-0.7843534312711955	0.1016669258387909	-2.857224168595617e-07	-1.032336692401527e-06	3.73172692166529e-06	9.572723816438767e-08	-7.712090601257579e-07	-1.443501686388071e-06	-5.421788429093095e-07
0.55	-0.1714691103603888	0.03698867948148345	0.7744728304415502	0.9397576267581507	-0.3706551540321334	0.01482281743069083	-0.4090944702761745	0.9700283800671173	0.9700283800665703	-0.05545848535326262	-0.174498515686461	0.3296844692174881	0.1601072354663881	-0.5576544085056497	-0.1208501160615437	-0.4347031675319643	1.914941488497395	0.03094559762137439	0.4913696503903894	-0.2548763781342115	1.707795248050749	1.707795248050486	0.2288537090538584	-0.002271307194261173	0.4940784990023188	0.2498548797705461	-0.0899549272926342	0.0212263610325267	0.002587678748914863	-0.2300400544265914	0.01144577056992235	0.01877000500909412	0.11177097848314	-21.32711398868164	-2.988653248983993	-1.436727593816131	-2.06753314473824	-457.2264594823399	-75.70965056097738	-4.663229353471522	0.2979509019684938	0.402438503561325	-0.08290906022487657	-1.800449008197211	0.03850222947493573	-0.616297147833978	1.301223554597479	-2.147516731183057	-2.147516731214402	-0.4741351283878336	0.09471003639152038	-0.8474233975880406	-0.02903801596028132	-2.794053564334116e-07	-7.217791231681974e-07	3.835595730887363e-06	1.414985003127696e-07	-7.659034116145039e-07	-1.214204726647628e-06	-5.337850253724879e-07
0.5600000000000001	-0.1770303617463941	0.03580032228335523	0.7701226081947038	0.9588151011971171	-0.3703430184991782	0.01970300786830056	-0.4115777603145296	0.9869970189844555	0.9869970189830812	-0.05319042957996207	-0.1745165642776162	0.3345825468595776	0.1626052229511336	-0.5545229046678075	-0.1168170110794311	-0.435240620854642	1.896304181868252	0.03146491469120405	0.4845925030607231	-0.2417768488104357	1.68570263895197	1.685702638951499	0.2247533700184074	-0.001387392492599189	0.4854679686429405	0.2496809669839935	-0.0936682850790909	0.0223014701003627	0.001983698988266771	-0.231976333853971	0.009481106034096484	0.01936460579100969	0.1146230735025092	-22.06271264157244	-3.085147181145274	-1.458971908713709	-1.789570888708667	-459.8358036531922	-75.96740343371022	-4.143298567097147	0.3216964128075381	0.4037092151045807	-0.02530227276066215	-1.915463112984646	0.0848677219465391	-0.7767450660978004	1.325977470423265	-2.263998997025449	-2.263998997025352	-0.2804767187876819	0.089046162050872	-0.8675205363642619	0.02505514193146736	-2.599772060578824e-07	-4.525879122442596e-07	3.746450527236196e-06	1.693987887659198e-07	-7.244501556894905e-07	-9.587232701540439e-07	-5.054271306375519e-07
0.5700000000000001	-0.182558293658168	0.03465245643194054	0.7657700068912662	0.9776789627341025	-0.3700261361194736	0.02451360557062223	-0.4139298225059874	1.003738077599002	1.003738077597422	-0.05096361173360955	-0.1745266667531579	0.3393926734129402	0.1650997829460747	-0.5509947423986895	-0.1127483961157513	-0.4351763150728148	1.876216325465756	0.03188782196597487	0.4774581630832139	-0.2286367872493706	1.662286849800949	1.662286849800789	0.2205919741479447	-0.0006867602794330951	0.4765024619873556	0.2491609018666319	-0.09719590865965674	0.02316951263326303	0.001459934204444864	-0.234332888932546	0.008051308435243626	0.0197807802498377	0.1173398621655838	-22.64685866474446	-3.100238904049788	-1.528954165194146	-1.627413667763926	-462.527056219862	-76.13589216169302	-3.661319193480055	0.3786741479043436	0.4096391365045576	0.03765551730673676	-2.093243298468632	0.01688275835559896	-0.6925574364828364	1.307840833548761	-2.413606120283949	-2.413606120237328	-0.4867171707419321	0.05321183248474887	-0.9193114899586596	-0.1014505873160745	-2.411671013549187e-07	-2.320939871360432e-07	3.642306912475985e-06	1.900720979994261e-07	-6.823824664228458e-07	-7.317698266704015e-07	-4.791258621610368e-07
0.58	-0.1880488843444631	0.03354551703006398	0.7614211203483758	0.9963343864281429	-0.3697058485613969	0.02925070407859506	-0.4161505200149166	1.020238330872805	1.020238330871028	-0.04877895707594113	-0.1745312348902245	0.3441114957477844	0.1675869596400933	-0.5470546595719731	-0.1086317211718073	-0.4344976687449219	1.854616613279798	0.03214595036525894	0.4698926641894909	-0.2155039123042941	1.637541570804183	1.637541570804333	0.216320732294841	-0.0002805248048513514	0.4672071249396509	0.2482043067994317	-0.1007235322402485	0.02403755516624001	0.000936169420337776	-0.23668944401111	0.006621510836417216	0.02019695470879075	0.1200566508286193	-23.22893319342057	-3.122840488834091	-1.58957345687402	-1.499322130155194	-465.2030556999759	-76.38811893780996	-3.216244050607733	0.4040805243270676	0.4133212111574672	0.09756583645248008	-2.2178342696771	0.05191194684918304	-0.8629768493405715	1.324540147225492	-2.529896966174358	-2.529896966174298	-0.3024459153158303	0.03016681433406354	-0.9334866147881066	-0.0622508480361522	-2.231618933418077e-07	-7.501978309016147e-08	3.518630483248183e-06	2.013335273189778e-07	-6.395145848973332e-07	-5.419691443159862e-07	-4.555029906722328e-07
